<svg width="24" height="24" viewBox="0 0 24 24" fill="none" xmlns="http://www.w3.org/2000/svg" data-reactroot="">
<path fill="none" d="M12.94 18H3C2.45 18 2 17.55 2 17V7C2 6.45 2.45 6 3 6H12.94H7.72H16.53C16.83 6 17.11 6.13 17.3 6.36L22 12L17.3 17.64C17.11 17.87 16.83 18 16.53 18H7.72" undefined="1"></path>
<path stroke-linejoin="round" stroke-linecap="round" stroke-miterlimit="10" stroke-width="1" stroke="#fff" d="M12.94 18H3C2.45 18 2 17.55 2 17V7C2 6.45 2.45 6 3 6H12.94H7.72H16.53C16.83 6 17.11 6.13 17.3 6.36L22 12L17.3 17.64C17.11 17.87 16.83 18 16.53 18H7.72"></path>
<path stroke-linejoin="round" stroke-linecap="round" stroke-miterlimit="10" stroke-width="1" stroke="#fff" fill="none" d="M15 14C16.1046 14 17 13.1046 17 12C17 10.8954 16.1046 10 15 10C13.8954 10 13 10.8954 13 12C13 13.1046 13.8954 14 15 14Z"></path>
</svg>
