<svg width="24" height="24" viewBox="0 0 24 24" fill="none" xmlns="http://www.w3.org/2000/svg" data-reactroot="">
<path stroke-linejoin="round" stroke-linecap="round" stroke-width="1" stroke="" d="M14 3H10C9.72 3 9.5 2.78 9.5 2.5C9.5 2.22 9.72 2 10 2H14C14.28 2 14.5 2.22 14.5 2.5C14.5 2.78 14.28 3 14 3Z"></path>
<path stroke-linejoin="round" stroke-linecap="round" stroke-width="1" stroke="" d="M12.5 2H11.5V6H12.5V2Z"></path>
<path stroke-linejoin="round" stroke-linecap="round" stroke-width="1" stroke="" d="M18.6522 6.65476L17.2946 8.01239L17.9946 8.71242L19.3523 7.35479L18.6522 6.65476Z"></path>
<path stroke-linejoin="round" stroke-linecap="round" stroke-width="1" stroke="" d="M5.35469 6.64763L4.65466 7.34766L6.0123 8.70529L6.71232 8.00526L5.35469 6.64763Z"></path>
<path stroke-linejoin="round" stroke-linecap="round" stroke-miterlimit="10" stroke-width="1" stroke="" fill="none" d="M12 22C16.4183 22 20 18.4183 20 14C20 9.58172 16.4183 6 12 6C7.58172 6 4 9.58172 4 14C4 18.4183 7.58172 22 12 22Z"></path>
<path stroke-linejoin="round" stroke-linecap="round" stroke-width="1" stroke="" d="M9 12L12 15L16 11"></path>
<path stroke-linejoin="round" stroke-linecap="round" stroke-width="1" stroke="" d="M6 14H4"></path>
<path stroke-linejoin="round" stroke-linecap="round" stroke-width="1" stroke="" d="M20 14H18"></path>
<path stroke-linejoin="round" stroke-linecap="round" stroke-width="1" stroke="" d="M12 8V6"></path>
<path stroke-linejoin="round" stroke-linecap="round" stroke-width="1" stroke="" d="M12 22V20"></path>
</svg>
