<svg width="24" height="24" viewBox="0 0 24 24" fill="" xmlns="http://www.w3.org/2000/svg" data-reactroot="">
<path fill="" d="M22 8H2V22H22V8Z" undefined="1"></path>
<path fill="" d="M15.5 16.5C12.46 16.5 10 18.96 10 22C10.01 22 21 22 21 22C21 18.96 18.54 16.5 15.5 16.5Z" undefined="1"></path>
<path stroke-linejoin="round" stroke-miterlimit="10" stroke-width="2" stroke="" d="M10 22C10 18.96 12.46 16.5 15.5 16.5C18.54 16.5 21 18.96 21 22"></path>
<path fill="" d="M15.5 16.5C17.0188 16.5 18.25 15.2688 18.25 13.75C18.25 12.2312 17.0188 11 15.5 11C13.9812 11 12.75 12.2312 12.75 13.75C12.75 15.2688 13.9812 16.5 15.5 16.5Z" undefined="1"></path>
<path stroke-linejoin="round" stroke-linecap="round" stroke-miterlimit="10" stroke-width="2" stroke="" d="M15.5 16.5C17.0188 16.5 18.25 15.2688 18.25 13.75C18.25 12.2312 17.0188 11 15.5 11C13.9812 11 12.75 12.2312 12.75 13.75C12.75 15.2688 13.9812 16.5 15.5 16.5Z"></path>
<path fill="" d="M10 22C7.86 22 3.01 22 3 22C3 19.79 4.79 18 7 18C8.45 18 9.71 18.77 10.41 19.92C10.15 20.56 10 21.26 10 22Z" undefined="1"></path>
<path stroke-linejoin="round" stroke-miterlimit="10" stroke-width="2" stroke="" d="M10 22C10 21.26 10.15 20.56 10.41 19.92C9.71 18.77 8.45 18 7 18C4.79 18 3 19.79 3 22"></path>
<path fill="" d="M7 18C8.10457 18 9 17.1046 9 16C9 14.8954 8.10457 14 7 14C5.89543 14 5 14.8954 5 16C5 17.1046 5.89543 18 7 18Z" undefined="1"></path>
<path stroke-linejoin="round" stroke-linecap="round" stroke-miterlimit="10" stroke-width="2" stroke="" d="M7 18C8.10457 18 9 17.1046 9 16C9 14.8954 8.10457 14 7 14C5.89543 14 5 14.8954 5 16C5 17.1046 5.89543 18 7 18Z"></path>
<path fill="" d="M7 3C7 2.44772 7.44772 2 8 2H16C16.5523 2 17 2.44772 17 3C17 3.55228 16.5523 4 16 4H8C7.44772 4 7 3.55228 7 3Z" clip-rule="evenodd" fill-rule="evenodd" undefined="1"></path>
<path fill="" d="M4 6C4 5.44772 4.44772 5 5 5H19C19.5523 5 20 5.44772 20 6C20 6.55228 19.5523 7 19 7H5C4.44772 7 4 6.55228 4 6Z" clip-rule="evenodd" fill-rule="evenodd" undefined="1"></path>
</svg>
