<svg width="24" height="24" viewBox="0 0 24 24" fill="" xmlns="http://www.w3.org/2000/svg" data-reactroot="">
<path fill="" d="M6.51493 4.12125C5.62459 4.34383 5 5.1438 5 6.06153V6.806C5 5.5889 6.07798 4.65398 7.28284 4.8261L17 6.21427V4.06153C17 2.76039 15.7772 1.80567 14.5149 2.12125L6.51493 4.12125Z" clip-rule="evenodd" fill-rule="evenodd" undefined="1"></path>
<path stroke-linejoin="round" stroke-linecap="round" stroke-width="1.5" stroke="" d="M5 6.80604C5 5.58894 6.07798 4.65402 7.28284 4.82614L17 6.21431"></path>
<path fill="" d="M5 6.80602C5 5.58892 6.07798 4.654 7.28284 4.82612L17.2828 6.25469C18.2681 6.39545 19 7.23929 19 8.23459V20.194C19 21.4111 17.922 22.346 16.7172 22.1739L6.71716 20.7453C5.73186 20.6046 5 19.7607 5 18.7654V6.80602Z" undefined="1"></path>
<path stroke-linejoin="round" stroke-linecap="round" stroke-width="1.5" stroke="" d="M9 10L15 11"></path>
<path stroke-linejoin="round" stroke-linecap="round" stroke-width="1.5" stroke="" d="M9 14L15 15"></path>
</svg>
