<svg width="24" height="24" viewBox="0 0 24 24" fill="" xmlns="http://www.w3.org/2000/svg" data-reactroot="">
<path fill="" d="M2 15.0002C2 14.448 2.44772 14.0002 3 14.0002H8C8.55228 14.0002 9 14.448 9 15.0002C9 15.5525 8.55228 16.0002 8 16.0002H4V20.0002C4 20.5525 3.55228 21.0002 3 21.0002C2.44772 21.0002 2 20.5525 2 20.0002V15.0002Z" clip-rule="evenodd" fill-rule="evenodd" undefined="1"></path>
<path fill="" d="M21.0043 13.0257C21.5426 13.1496 21.8784 13.6863 21.7545 14.2245C21.0767 17.1695 19.1109 19.6117 16.4903 20.9331L16.4902 20.9332C15.1451 21.6113 13.6114 22.0002 12 22.0002C7.56159 22.0002 4.72058 19.1903 2.18166 15.5749C1.86426 15.1229 1.97336 14.4992 2.42533 14.1819C2.8773 13.8645 3.50099 13.9736 3.81839 14.4255C6.27947 17.9301 8.59846 20.0002 12 20.0002C13.2886 20.0002 14.5149 19.6892 15.5898 19.1473C17.6891 18.0887 19.2634 16.131 19.8055 13.7759C19.9294 13.2377 20.4661 12.9018 21.0043 13.0257Z" clip-rule="evenodd" fill-rule="evenodd" undefined="1"></path>
<path fill="" d="M22 8.99976C22 9.55204 21.5523 9.99976 21 9.99976H16C15.4477 9.99976 15 9.55204 15 8.99976C15 8.44747 15.4477 7.99976 16 7.99976H20V3.99976C20 3.44747 20.4477 2.99976 21 2.99976C21.5523 2.99976 22 3.44747 22 3.99976V8.99976Z" clip-rule="evenodd" fill-rule="evenodd" undefined="1"></path>
<path fill="" d="M2.99565 10.9743C2.45745 10.8504 2.12157 10.3137 2.24546 9.77546C2.92335 6.83054 4.88909 4.3883 7.50974 3.06687L7.50981 3.06683C8.8549 2.38873 10.3886 1.99978 12 1.99978C16.4384 1.99978 19.2794 4.80966 21.8183 8.42508C22.1357 8.87705 22.0266 9.50075 21.5747 9.81815C21.1227 10.1355 20.499 10.0264 20.1816 9.57447C17.7205 6.0699 15.4015 3.99978 12 3.99978C10.7114 3.99978 9.48511 4.31081 8.41021 4.85269C6.31087 5.91126 4.7366 7.86902 4.19449 10.2241C4.0706 10.7623 3.53386 11.0982 2.99565 10.9743Z" clip-rule="evenodd" fill-rule="evenodd" undefined="1"></path>
</svg>
