<svg width="24" height="24" viewBox="0 0 24 24" fill="" xmlns="http://www.w3.org/2000/svg" data-reactroot="">
<path fill="" d="M4 9.78012C4 8.76012 4.24 7.76012 4.71 6.81012C4.96 6.32012 4.75 5.72012 4.26 5.47012C3.76 5.23012 3.16 5.43012 2.91 5.93012C2.32 7.13012 2 8.47012 2 9.78012C2 11.5901 2.56 13.3101 3.61 14.7701C3.81 15.0401 4.11 15.1901 4.42 15.1901C4.62 15.1901 4.83 15.1301 5 15.0001C5.45 14.6801 5.55 14.0501 5.23 13.6001C4.43 12.4901 4 11.1601 4 9.78012Z" undefined="1"></path>
<path fill="" d="M16.7 13.49C16.4 13.96 16.54 14.57 17.01 14.87C17.18 14.98 17.36 15.03 17.55 15.03C17.88 15.03 18.2 14.87 18.39 14.57C19.28 13.17 19.75 11.52 19.74 9.86004C19.87 8.29004 18.98 6.20004 18.88 5.97004C18.66 5.46004 18.07 5.23004 17.56 5.45004C17.05 5.67004 16.82 6.26004 17.04 6.77004C17.25 7.24004 17.81 8.79004 17.74 9.78004C17.74 11.14 17.38 12.42 16.7 13.49Z" undefined="1"></path>
<path fill="" d="M5.58001 5.06C5.82001 5.06 6.05001 4.98 6.24001 4.81C7.56001 3.64 9.27001 3 11.06 3C12.48 3 13.85 3.4 15.03 4.16C15.5 4.46 16.11 4.32 16.41 3.86C16.71 3.4 16.58 2.78 16.11 2.48C14.61 1.51 12.86 1 11.06 1C8.77001 1 6.59001 1.82 4.92001 3.31C4.51001 3.68 4.47001 4.31 4.84001 4.72C5.03001 4.95 5.30001 5.06 5.58001 5.06Z" undefined="1"></path>
<path fill="" d="M21.71 21.29L16.02 15.6C15.68 15.26 15.16 15.21 14.76 15.47C12.57 16.93 9.31999 16.87 6.99999 15.31C6.53999 15 5.91999 15.12 5.60999 15.58C5.29999 16.04 5.41999 16.66 5.87999 16.97C7.40999 18 9.19999 18.54 11.06 18.54C12.52 18.54 13.92 18.2 15.15 17.55L20.29 22.69C20.49 22.9 20.74 23 21 23C21.26 23 21.51 22.9 21.71 22.71C22.1 22.32 22.1 21.68 21.71 21.29Z" undefined="1"></path>
</svg>
