<svg width="24" height="24" viewBox="0 0 24 24" fill="" xmlns="http://www.w3.org/2000/svg" data-reactroot="">
<path fill="" d="M16 10C16.3788 10 16.725 10.214 16.8944 10.5528L21.8944 20.5528C22.1414 21.0468 21.9412 21.6474 21.4472 21.8944C20.9532 22.1414 20.3526 21.9412 20.1056 21.4472L18.882 19H13.118L11.8944 21.4472C11.6474 21.9412 11.0468 22.1414 10.5528 21.8944C10.0588 21.6474 9.85859 21.0468 10.1056 20.5528L15.1056 10.5528C15.275 10.214 15.6212 10 16 10ZM14.118 17H17.882L16 13.2361L14.118 17Z" clip-rule="evenodd" fill-rule="evenodd" undefined="1"></path>
<path fill="" d="M9.00001 2C9.55229 2 10 2.44772 10 3V4H12.7311C12.7429 3.99979 12.7547 3.99979 12.7665 4H15C15.5523 4 16 4.44772 16 5C16 5.55228 15.5523 6 15 6H13.5766C13.0011 8.68229 11.8608 11.1541 10.2862 13.2848C10.4431 13.4613 10.6039 13.6345 10.7683 13.8043C11.1526 14.201 11.1424 14.8341 10.7457 15.2183C10.349 15.6025 9.71594 15.5924 9.3317 15.1957C9.21965 15.08 9.10917 14.963 9.00027 14.8445C7.42902 16.5571 5.54779 17.9804 3.4451 19.0255C2.95054 19.2713 2.35034 19.0697 2.10452 18.5751C1.8587 18.0805 2.06035 17.4803 2.55491 17.2345C4.52143 16.2571 6.27114 14.9101 7.71395 13.2849C6.82465 12.0807 6.07893 10.7728 5.49017 9.39229C5.27351 8.88427 5.50971 8.29681 6.01772 8.08016C6.52574 7.8635 7.1132 8.0997 7.32985 8.60771C7.78545 9.67601 8.34501 10.6941 9.00014 11.6446C10.1636 9.95809 11.0304 8.05128 11.5255 6H3.00001C2.44772 6 2.00001 5.55228 2.00001 5C2.00001 4.44772 2.44772 4 3.00001 4H8.00001V3C8.00001 2.44772 8.44772 2 9.00001 2Z" clip-rule="evenodd" fill-rule="evenodd" undefined="1"></path>
</svg>
